<svg xmlns="http://www.w3.org/2000/svg" width="641" height="349" viewBox="0 0 641 349">
    <g fill="none" fill-rule="evenodd">
        <ellipse cx="322.171" cy="327.335" fill="#F2F2F2" fill-rule="nonzero" rx="314.339" ry="20.81"/>
        <path fill="#2F2E41" fill-rule="nonzero" d="M310.123 99.522c-51.214 0-87.985 32.857-87.985 109.525 0 86.89 36.771 109.891 87.985 109.891 51.215 0 90.177-25.19 90.177-109.89 0-90.542-38.962-109.526-90.177-109.526zm.337 190.574c-35.472 0-54.004-20.81-54.004-80.993 0-53.102 19.29-81.105 54.763-81.105 35.472 0 54.763 18.395 54.763 81.105 0 58.666-20.05 80.993-55.522 80.993z"/>
        <path fill="#8F3D86" fill-rule="nonzero" d="M191.47 258.334h-21.175v-62.355c0-6.897-5.59-12.488-12.487-12.488h-4.962a12.488 12.488 0 0 0-12.488 12.488v62.355H80.631a7.129 7.129 0 0 1-6.303-10.46l63.215-119.645a12.488 12.488 0 0 0-5.71-17.126l-3.731-1.762c-6.018-2.842-13.208-.464-16.345 5.405l-77.1 144.228A16.933 16.933 0 0 0 49.59 283.89h90.768v39.43a14.968 14.968 0 0 0 14.969 14.968 14.968 14.968 0 0 0 14.968-14.969V283.89h21.175c7.057 0 12.778-5.72 12.778-12.778 0-7.057-5.72-12.778-12.778-12.778zM583.573 258.334h-21.175v-62.355c0-6.897-5.591-12.488-12.488-12.488h-4.962a12.488 12.488 0 0 0-12.487 12.488v62.355h-59.728a7.129 7.129 0 0 1-6.303-10.46l63.215-119.645a12.488 12.488 0 0 0-5.71-17.126l-3.73-1.762c-6.02-2.842-13.209-.464-16.346 5.405L426.76 258.974a16.933 16.933 0 0 0-2 7.983c0 9.352 7.581 16.933 16.933 16.933h90.768v39.43c0 8.266 6.701 14.968 14.968 14.968s14.969-6.702 14.969-14.969V283.89h21.175c7.057 0 12.778-5.72 12.778-12.778 0-7.057-5.721-12.778-12.778-12.778z"/>
        <ellipse cx="299.505" cy="27.939" fill="#2F2E41" fill-rule="nonzero" rx="21.563" ry="27.939"/>
        <path fill="#000" fill-rule="nonzero" d="M299.505 47.44c-10.802 0-19.749-10.292-21.319-23.72-.163 1.4-.244 2.809-.244 4.219 0 15.43 9.654 27.939 21.563 27.939 11.91 0 21.564-12.509 21.564-27.94 0-1.41-.081-2.818-.245-4.218-1.57 13.428-10.516 23.72-21.319 23.72z" opacity=".1"/>
        <path fill="#3F3D56" fill-rule="nonzero" d="M343.385 109.759c-.464 1.903-2.46 3.427-4.672 4.492-4.649 2.238-10.383 2.906-15.946 3.13a26.92 26.92 0 0 1-4.257-.078 12.238 12.238 0 0 1-7.3-3.356 1.002 1.002 0 0 1 .026-1.695c2.961-3.253 7.903-5.247 12.88-6.683 3.775-1.09 10.358-3.91 14.475-3.53 3.988.37 5.378 5.317 4.794 7.72z"/>
        <path fill="#000" fill-rule="nonzero" d="M343.385 109.759c-.464 1.903-2.46 3.427-4.672 4.492-4.649 2.238-10.383 2.906-15.946 3.13a26.92 26.92 0 0 1-4.257-.078 12.238 12.238 0 0 1-7.3-3.356 1.002 1.002 0 0 1 .026-1.695c2.961-3.253 7.903-5.247 12.88-6.683 3.775-1.09 10.358-3.91 14.475-3.53 3.988.37 5.378 5.317 4.794 7.72z" opacity=".1"/>
        <path fill="#3F3D56" fill-rule="nonzero" d="M284.272 95.536a11.78 11.78 0 0 0-.714 8.983 15.696 15.696 0 0 0 5.261 7.447c6.015 4.822 14.294 5.485 22.004 5.418A169.624 169.624 0 0 0 331.027 116a24.157 24.157 0 0 0 6.556-1.523c2.516-1.088 4.727-3.085 5.623-5.676.895-2.591.26-5.764-1.868-7.493-1.87-1.52-4.447-1.728-6.851-1.873l-13.758-.827c1.359-1.375 3.169-2.153 4.824-3.153 2.196-1.327 3.655-3.555 5.252-5.563a76.872 76.872 0 0 1 8.008-8.233c.448 2.568 2.072 4.677 3.985 6.45 1.912 1.772 4.117 3.199 6.104 4.886 4.814 4.087 8.28 9.634 13.344 13.408a26.118 26.118 0 0 0 9.563-4.774l-1.968-3.565a2.348 2.348 0 0 0-.741-.925c-.557-.343-1.275-.166-1.922-.263-1.729-.26-2.484-2.255-3.162-3.866-1.862-4.422-5.427-7.854-8.472-11.563a58.404 58.404 0 0 1-5.957-8.773c-1.023-1.848-1.96-3.773-3.347-5.365-1.388-1.592-3.334-2.844-5.446-2.849-1.866-.004-3.588.944-5.193 1.897a137.342 137.342 0 0 0-14.081 9.593c-2.35 1.825-4.686 3.752-7.443 4.871-1.16.471-2.383.793-3.497 1.366-1.95 1.004-3.43 2.702-5.024 4.21-5.684 5.377-13.465 8.86-21.284 9.139z"/>
        <path fill="#FBBEBE" fill-rule="nonzero" d="M313.04 57.265a14.167 14.167 0 0 1-1.033 4.787 5.986 5.986 0 0 1-3.438 3.321 7.374 7.374 0 0 1-3.35.109 6.485 6.485 0 0 1-2.73-.93c-1.29-.887-1.934-2.47-2.168-4.019-.234-1.547-.13-3.127-.28-4.685a25.59 25.59 0 0 0-.716-3.728c-.1-.407-.204-.812-.305-1.217-.1-.405-.197-.81-.287-1.215a26.39 26.39 0 0 1-.225-1.148c-.055-.324-.103-.65-.139-.978a10.978 10.978 0 0 0-.482-2.867 8.705 8.705 0 0 0-1.005-1.701c-.17-.244-.336-.488-.487-.74a3.51 3.51 0 0 1-.58-2.234 1.958 1.958 0 0 1 .139-.491c.342-.093.617-.35.733-.685.065-.354.034-.72-.088-1.06a6.744 6.744 0 0 0-.572-1.362c-.157-.285-.692-.8-.696-1.125-.007-.657 1.275-1.185 1.795-1.444a10.009 10.009 0 0 1 5.123-1.039c1.134.077 2.364.426 2.99 1.376.563.857.488 1.967.728 2.963.025.145.086.28.178.396a.8.8 0 0 0 .44.202c.278.055.563.067.844.034h.002a2.954 2.954 0 0 0 1.433-.555 7.577 7.577 0 0 1 .731-.158c.94 2.965 1.062 6.143 1.83 9.162.38 1.502.927 2.985 1.003 4.53.006.068.008.137.01.206.011.497-.028.998-.008 1.493.007.223.033.445.075.664.084.352.189.699.313 1.039l.006.016a5.12 5.12 0 0 1 .152.57l.002.006c.139.829.16 1.673.062 2.507z"/>
        <circle cx="299.88" cy="26.814" r="11.063" fill="#FBBEBE" fill-rule="nonzero"/>
        <path fill="#FBBEBE" fill-rule="nonzero" d="M370.117 87.09a18.142 18.142 0 0 0-3.12-8.404l.863 5.117a1.915 1.915 0 0 1-2.007-.617 6.16 6.16 0 0 1-1.052-1.952 40.203 40.203 0 0 0-4.892-8.78c-7.042-.588-14.005-3.507-20.198-6.91-6.195-3.402-11.993-7.48-18.106-11.026a25.966 25.966 0 0 0-3.304-1.687c-1.912-.767-4.06-1.165-5.873-2.067a9.61 9.61 0 0 1-.363-.19 7.496 7.496 0 0 1-1.16-.777 6.164 6.164 0 0 1-.554-.51 12.127 12.127 0 0 1-2.12-3.548c-.974-2.153-1.321-4.75-2.292-6.902a6.676 6.676 0 0 1 1.49-1.052h.002a7.115 7.115 0 0 1 2.136-.707 6.892 6.892 0 0 1 3.3.253c1.542.521 2.84 1.562 4.137 2.546a67.945 67.945 0 0 1 6.047 4.797c1.069 1.024 2.044 2.149 3.193 3.079a25.114 25.114 0 0 0 3.013 1.997c6.22 3.705 12.44 7.41 18.661 11.113 2.106 1.255 4.213 2.51 6.272 3.837 3.128 2.017 6.143 4.204 9.156 6.388a8317.12 8317.12 0 0 1 5.326 3.861 5.797 5.797 0 0 1 1.51 1.395c.367.626.595 1.324.668 2.046a18.704 18.704 0 0 1-.733 8.7z"/>
        <path fill="#8F3D86" fill-rule="nonzero" d="M315.783 65.585c-.746 3.347-4.129 5.37-5.897 8.31-2.198 3.65-1.302 7.89-.476 12.07-1.508 1.3-3.016 2.6-4.525 3.898-.833.715-1.665 1.433-2.561 2.065a34.175 34.175 0 0 1-4.088 2.348l-4.005 2.06a19.145 19.145 0 0 1-3.921 1.662c-2.63.675-5.425.202-8.027-.58-.307-.08-.602-.2-.878-.358a1.426 1.426 0 0 1-.416-.377 2.33 2.33 0 0 1-.265-1.513c.265-4.38 1.336-8.669 2.402-12.925a50.807 50.807 0 0 1 2.294-7.495 50.697 50.697 0 0 1 3.227-6.049 40.74 40.74 0 0 1 4.725-6.86 11.012 11.012 0 0 0 2.19-2.825c.666-1.518.409-3.26.544-4.914.103-1.243.433-2.456.973-3.58v-.002c.289-.605.637-1.18 1.039-1.717a1369.353 1369.353 0 0 0 .902 2.1l.457 1.065 1.309 3.047a12.865 12.865 0 0 0 1.988 3.542 3.873 3.873 0 0 0 6.628-.508 12.67 12.67 0 0 0 1.354-3.583c.37-1.53.421-3.12.15-4.67-.452-2.984-1.721-6.033-2.644-8.807a8.906 8.906 0 0 1-.643-2.902c.002-.112.013-.224.034-.334l.016-.086a7.115 7.115 0 0 1 1.898-.589c.812 4.395 1.625 8.79 2.44 13.186.018.103.039.206.058.31.116.63.234 1.26.365 1.889.118.57.246 1.138.388 1.703l.006.016c.049.192.1.381.152.57l.002.006c.144.518.305 1.031.487 1.538 1.103 3.05 3.025 6.122 2.318 9.289z"/>
        <path fill="#3F3D56" fill-rule="nonzero" d="M360.68 112.621c-.034.645.09 1.288.364 1.873.693 1.266 2.354 1.553 3.792 1.672 8.397.69 16.846.433 25.186-.768a2.911 2.911 0 0 0 1.282-.397c1.186-.832.455-2.858-.84-3.506-1.295-.65-2.831-.493-4.252-.774a13.395 13.395 0 0 1-3.98-1.725 201.844 201.844 0 0 1-8.517-5.178c-1.665-1.07-3.63-2.21-5.506-1.576-5.08 1.718-7.562 4.9-7.528 10.38z"/>
        <path fill="#FBBEBE" fill-rule="nonzero" d="M298.776 49.454v.001a4.618 4.618 0 0 1-.043.233c-.02.127-.045.257-.07.384a46.306 46.306 0 0 1-.845 3.554c-.9 3.253-2.106 6.454-3.302 9.607l-9.633 25.372c-.81 2.13-1.618 4.262-2.538 6.35-.308.695-.625 1.396-.94 2.105-1.129 2.537-2.212 5.157-2.572 7.857a16.357 16.357 0 0 0-.115 5.387c.36 1.77 1.435 3.499 3.117 4.153.82.32 1.996.75 1.771 1.603-.121.469-.654.698-1.132.777a4.357 4.357 0 0 1-3.555-1.024c-.898-.797-1.588-2.037-2.783-2.17-.827-.09-1.588.405-2.346.752-3.09 1.412-6.69.424-9.936-.58.255-1.314 1.575-2.18 2.886-2.442 1.31-.265 2.666-.077 4.003-.113.428.023.853-.086 1.217-.313.327-.3.555-.69.657-1.121a47.055 47.055 0 0 0 1.914-7.834c.431-2.781.611-5.605 1.226-8.352.478-2.143 1.217-4.22 1.851-6.323a133.889 133.889 0 0 0 3.015-13.156c.396-1.841.68-3.705.85-5.582.106-1.556.056-3.12.206-4.67.252-2.018.672-4.01 1.258-5.958l1.72-6.37c.849-3.14 1.76-6.403 3.913-8.844a8.32 8.32 0 0 1 5.976-2.854c.427 0 .852.045 1.27.137l.207.052c.455.12.89.3 1.296.537.664-.422 1.001-.274 1.442.377.386.688.568 1.473.525 2.261a31.24 31.24 0 0 1-.51 6.207z"/>
        <path fill="#8F3D86" fill-rule="nonzero" d="M299.505 51.94l-.028.028-.152.152-1.507 1.506-.739-3.104-2.533-10.639c.427 0 .852.045 1.27.137.017-.122.047-.242.087-.358l.12.41.86 2.922 1.625 5.546.268.913v.002l.73 2.485z"/>
        <path fill="#2F2E41" fill-rule="nonzero" d="M309.072 17.998A7.497 7.497 0 0 1 306.056 24a7.466 7.466 0 0 1-4.49 1.504h-8.996a7.503 7.503 0 0 1 0-15.005h8.996a7.526 7.526 0 0 1 7.506 7.499z"/>
        <path fill="#000" fill-rule="nonzero" d="M306.056 24a7.466 7.466 0 0 1-4.49 1.504h-8.996A7.466 7.466 0 0 1 288.08 24h17.976z" opacity=".1"/>
        <path fill="#FBBEBE" fill-rule="nonzero" d="M364.148 79.706s1.938 5.584 3.712 4.097l-1.414-7.3-2.298 3.203z"/>
        <path fill="#57B894" fill-rule="nonzero" d="M599.993 250.011a12.402 12.402 0 1 0 1.652-23.786l.31 6.384-3.02-5.47a12.355 12.355 0 0 0-6.366 6.985 12.4 12.4 0 0 0 7.425 15.887z"/>
        <path stroke="#3F3D56" stroke-width=".67" d="M614.937 324.048c-1.066-5.429 3.554-10.242 8.117-13.37 4.563-3.128 9.895-6.202 11.452-11.51 2.237-7.63-4.428-14.618-9.616-20.644a74.667 74.667 0 0 1-9.846-14.634c-1.08-2.105-2.071-4.305-2.355-6.654-.41-3.382.677-6.747 1.772-9.973a721.262 721.262 0 0 1 11.697-31.97"/>
        <path stroke="#3F3D56" stroke-width=".67" d="M600.504 248.367a12.402 12.402 0 1 0 1.652-23.785l.31 6.383-3.02-5.47a12.355 12.355 0 0 0-6.366 6.985 12.4 12.4 0 0 0 7.425 15.887z"/>
        <path fill="#57B894" fill-rule="nonzero" d="M613.421 213.088a12.388 12.388 0 0 1 8.927-7.865l1.02 6.069 1.894-6.374a12.4 12.4 0 1 1-11.84 8.17z"/>
        <path stroke="#3F3D56" stroke-width=".67" d="M614.102 210.897a12.388 12.388 0 0 1 8.927-7.865l1.02 6.069 1.894-6.374a12.4 12.4 0 1 1-11.84 8.17z"/>
        <path fill="#57B894" fill-rule="nonzero" d="M622.713 278.647a12.4 12.4 0 0 0 10.976-22.062l-1.454 4.898-1.032-6.14a12.401 12.401 0 1 0-8.49 23.304z"/>
        <path stroke="#3F3D56" stroke-width=".67" d="M623.303 276.427a12.4 12.4 0 0 0 10.976-22.062l-1.454 4.898-1.032-6.14a12.401 12.401 0 1 0-8.49 23.304z"/>
        <path fill="#57B894" fill-rule="nonzero" d="M609.802 299.243a12.396 12.396 0 1 0 2.39-9.712l5.525 8.317-7.55-4.414a12.285 12.285 0 0 0-.365 5.809z"/>
        <path stroke="#3F3D56" stroke-width=".67" d="M610.313 297.6a12.396 12.396 0 1 0 2.39-9.712l5.525 8.317-7.55-4.415a12.285 12.285 0 0 0-.365 5.81z"/>
        <path fill="#57B894" fill-rule="nonzero" d="M5.368 280.223a8.149 8.149 0 1 0 1.085-15.628l.204 4.194-1.985-3.594a8.118 8.118 0 0 0-4.182 4.59 8.147 8.147 0 0 0 4.878 10.438z"/>
        <path stroke="#3F3D56" stroke-width=".67" d="M15.186 328.866c-.7-3.566 2.335-6.729 5.333-8.784 2.998-2.055 6.5-4.075 7.524-7.563 1.47-5.013-2.91-9.604-6.318-13.563a49.057 49.057 0 0 1-6.469-9.614 13.235 13.235 0 0 1-1.547-4.372c-.269-2.222.445-4.433 1.164-6.553a473.877 473.877 0 0 1 7.685-21.005"/>
        <path stroke="#3F3D56" stroke-width=".67" d="M5.703 279.143a8.148 8.148 0 1 0 1.085-15.628l.204 4.194-1.984-3.594a8.118 8.118 0 0 0-4.183 4.59 8.147 8.147 0 0 0 4.878 10.438z"/>
        <path fill="#57B894" fill-rule="nonzero" d="M14.19 255.964a8.139 8.139 0 0 1 5.865-5.168l.67 3.988 1.245-4.188a8.147 8.147 0 1 1-7.78 5.368z"/>
        <path stroke="#3F3D56" stroke-width=".67" d="M14.637 254.524a8.139 8.139 0 0 1 5.865-5.167l.671 3.987 1.244-4.188a8.147 8.147 0 1 1-7.78 5.368z"/>
        <path fill="#57B894" fill-rule="nonzero" d="M20.295 299.037a8.148 8.148 0 0 0 7.211-14.495l-.955 3.218-.678-4.034a8.148 8.148 0 1 0-5.578 15.311z"/>
        <path stroke="#3F3D56" stroke-width=".67" d="M20.683 297.579a8.148 8.148 0 0 0 7.211-14.495l-.956 3.218-.677-4.034a8.148 8.148 0 1 0-5.578 15.311z"/>
        <path fill="#57B894" fill-rule="nonzero" d="M11.812 312.569a8.144 8.144 0 1 0 1.57-6.38l3.63 5.464-4.96-2.9a8.072 8.072 0 0 0-.24 3.816z"/>
        <path stroke="#3F3D56" stroke-width=".67" d="M12.148 311.49a8.144 8.144 0 1 0 1.57-6.382l3.63 5.465-4.96-2.9a8.072 8.072 0 0 0-.24 3.816z"/>
        <ellipse cx="286.597" cy="190.162" fill="#2F2E41" fill-rule="nonzero" rx="10.13" ry="13.11"/>
        <ellipse cx="341.718" cy="190.46" fill="#2F2E41" fill-rule="nonzero" rx="10.13" ry="13.11"/>
        <path fill="#2F2E41" fill-rule="nonzero" d="M333.972 229.194c0 5.923-8.272 10.726-18.473 10.726-10.202 0-18.473-4.803-18.473-10.726 0-5.131 6.203-9.422 14.492-10.47 1.32-.174 2.65-.26 3.98-.257 2.231-.007 4.455.233 6.633.715 6.924 1.544 11.84 5.447 11.84 10.012z"/>
        <ellipse cx="288.981" cy="187.182" stroke="#3F3D56" stroke-width=".67" rx="10.13" ry="13.11"/>
        <ellipse cx="344.102" cy="187.48" stroke="#3F3D56" stroke-width=".67" rx="10.13" ry="13.11"/>
        <ellipse cx="317.882" cy="226.214" stroke="#3F3D56" stroke-width=".67" rx="18.473" ry="10.726"/>
        <path fill="#FFF" fill-rule="nonzero" d="M322.351 220.076a2.942 2.942 0 0 1-.786 2.022 2.585 2.585 0 0 1-1.895.839h-5.96a2.78 2.78 0 0 1-2.68-2.86 2.923 2.923 0 0 1 .488-1.634 28.02 28.02 0 0 1 3.98-.274c2.234-.007 4.46.249 6.633.763.147.364.222.752.22 1.144z"/>
        <circle cx="288.981" cy="183.607" r="2.98" fill="#FFF" fill-rule="nonzero"/>
        <circle cx="344.4" cy="183.607" r="2.98" fill="#FFF" fill-rule="nonzero"/>
        <circle cx="347.379" cy="211.614" r="2.98" fill="#8F3D86" fill-rule="nonzero" opacity=".3"/>
        <circle cx="274.679" cy="211.614" r="2.98" fill="#8F3D86" fill-rule="nonzero" opacity=".3"/>
    </g>
</svg>
